<?xml version="1.0" encoding="utf-8"?>
<!-- Generator: Adobe Illustrator 25.0.1, SVG Export Plug-In . SVG Version: 6.00 Build 0)  -->
<svg version="1.1" id="Layer_1" xmlns="http://www.w3.org/2000/svg" xmlns:xlink="http://www.w3.org/1999/xlink" x="0px" y="0px"
	 viewBox="0 0 566.93 354.33" style="enable-background:new 0 0 566.93 354.33;" xml:space="preserve">
<style type="text/css">
	.Arched_x0020_Green{fill:url(#SVGID_1_);stroke:#FFFFFF;stroke-width:0.25;stroke-miterlimit:1;}
	.st0{fill:#D60510;}
	.st1{fill:#FFFFFF;}
</style>
<linearGradient id="SVGID_1_" gradientUnits="userSpaceOnUse" x1="-309.5356" y1="597.0542" x2="-308.8285" y2="596.3471">
	<stop  offset="0" style="stop-color:#1DA238"/>
	<stop  offset="0.9831" style="stop-color:#24391D"/>
</linearGradient>
<rect x="607" y="0" width="566.93" height="354.33"/>
<g>
	<g>
		<path class="st0" d="M694.41,254.04l-0.73,5.56c-0.33,2.74,1.83,5.15,4.63,5.15h180.84c2.81,0,4.97-2.41,4.65-5.15l-0.75-5.56
			c-0.45-4.33,2.71-8.29,7.03-8.74c4.35-0.47,8.19,2.7,8.64,7.02l0.7,5.41c1.41,12.09-5.45,22.71-17.67,22.71H695.72
			c-12.22,0-19.08-10.61-17.67-22.71l0.7-5.41c0.46-4.32,4.29-7.49,8.62-7.02C691.7,245.76,694.85,249.71,694.41,254.04"/>
		<path class="st1" d="M861.58,212.12c8.8,0.02,15.81-6.39,15.63-14.83c-0.18-8.64-8.04-14.22-16.81-14.23h-17.71
			c-3.92,0-7.14-3.26-7.14-7.34c0-4.09,3.21-7.36,7.14-7.36h11.83c7.97-0.32,14.12-5.15,14.5-12.69c0.4-8.07-6.54-14.13-15.03-14.13
			h-28.7l-0.12,70.59H861.58z M883.34,155.62c0,7.36-2.61,11.53-6.93,16.66l-0.43,0.52l0.6,0.37c8.55,5.21,14.52,13.09,14.96,24.15
			c0.66,16.48-13.3,30.11-29.88,30.08h-43.7c-4.25,0-7.69-3.54-7.69-7.89v-84.76c0-4.37,3.44-7.89,7.67-7.89l36.08,0.1
			C869.75,126.97,883.34,138.53,883.34,155.62"/>
		<path class="st1" d="M742.49,198.34l0.2,0.6l0.22-0.6c2.03-5.58,4.47-11.76,7.06-18.5c2.67-7.09,5.33-13.87,7.99-20.33
			c2.69-6.56,5.23-12.41,7.66-17.51c2.42-5.21,4.43-8.79,5.98-10.75c2.39-2.86,5.55-4.3,9.48-4.3h1.81c2.41,0,4.29,0.63,5.7,1.83
			c1.29,1.13,2.06,2.43,2.28,3.92l11.29,87.58c0,2.26-0.65,4-1.93,5.3c-1.28,1.21-3.11,1.81-5.5,1.81s-4.29-0.57-5.68-1.68
			c-1.54-1.11-2.42-2.57-2.64-4.38c-0.38-2.91-0.73-6.15-1.08-9.7c-0.5-3.54-2.26-18.82-2.76-22.67c-0.46-3.97-3.64-28.71-4.72-37.7
			l-0.1-0.76l-3.62,7.59c-1.23,2.61-2.56,5.75-4.02,9.4c-1.44,3.65-2.92,7.51-4.37,11.58c-1.58,3.95-8.57,23.93-8.57,23.93
			c-0.65,1.81-1.88,5.46-2.99,8.82c-1.13,3.34-2.16,6.36-2.44,6.94c-1.66,3.3-4.9,5.48-9.02,5.51c-4.17-0.02-7.41-2.21-9.05-5.51
			c-0.3-0.58-1.33-3.61-2.46-6.94c-1.13-3.36-2.33-7.01-3.01-8.82c0,0-6.99-19.98-8.55-23.93c-1.46-4.07-2.92-7.92-4.38-11.58
			c-1.46-3.65-2.79-6.79-3.99-9.4l-3.64-7.59l-0.08,0.76c-1.1,8.99-4.25,33.73-4.73,37.7c-0.5,3.85-2.26,19.13-2.74,22.67
			c-0.37,3.55-0.73,6.79-1.11,9.7c-0.22,1.81-1.1,3.27-2.62,4.38c-1.41,1.11-3.3,1.68-5.7,1.68c-2.39,0-4.2-0.6-5.48-1.81
			c-1.28-1.3-1.93-3.06-1.94-5.3l11.29-87.58c0.25-1.49,1-2.79,2.29-3.92c1.4-1.2,3.31-1.83,5.68-1.83h1.83
			c3.94,0,7.09,1.45,9.47,4.3c1.56,1.96,3.55,5.53,5.98,10.75c2.44,5.1,4.98,10.95,7.66,17.51c2.66,6.46,5.33,13.24,8.01,20.33
			C738.02,186.58,740.46,192.76,742.49,198.34"/>
		<path class="st0" d="M720.33,73.9h137.36c12.94,0,19.38,9.72,20.89,22.53l0.58,4.1c0.46,4.4-2.77,8.34-7.09,8.8
			c-4.33,0.46-8.22-2.72-8.67-7.12l-0.55-3.92c-0.58-4.87-2.64-8.62-7.59-8.62H722.76c-4.95,0-7.01,3.75-7.59,8.62l-0.53,3.92
			c-0.45,4.4-4.34,7.59-8.69,7.12c-4.33-0.46-7.56-4.4-7.09-8.8l0.58-4.1C700.97,83.61,707.4,73.9,720.33,73.9"/>
		<path class="st1" d="M967.4,166.2c-0.95,3.67-1.93,7.59-2.96,11.76c-1.03,4.15-2.06,8.14-3.07,11.94c-1,3.8-1.94,7.12-2.86,10
			c-0.9,2.87-1.66,4.83-2.26,5.89c-1.06,1.88-2.94,2.81-5.61,2.81c-0.75,0-1.71-0.15-2.92-0.46c-1.2-0.3-2.19-1.15-3.01-2.54
			c-0.6-1.06-1.35-3.12-2.26-6.2c-0.9-3.07-1.84-6.59-2.86-10.6c-1-4-1.99-8.24-3.01-12.71c-1-4.47-1.91-8.6-2.71-12.46
			c-0.8-3.82-1.48-7.11-2.01-9.8c-0.53-2.71-0.83-4.3-0.9-4.85c-0.07-0.33-0.1-0.56-0.1-0.7v-0.4c0-1.13,0.42-2.06,1.3-2.76
			c0.86-0.7,1.94-1.05,3.21-1.05c1.21,0,2.18,0.27,2.92,0.76c0.73,0.48,1.26,1.38,1.59,2.64c0,0.13,0.2,1.11,0.55,2.91
			c0.38,1.79,0.85,4.1,1.41,6.89c0.58,2.81,1.21,5.93,1.91,9.4c0.7,3.47,1.43,6.99,2.21,10.56c0.76,3.55,1.54,6.99,2.31,10.35
			c0.76,3.32,1.48,6.2,2.16,8.59c0.66-2.26,1.39-4.85,2.21-7.76c0.8-2.89,1.61-5.9,2.41-8.98c0.8-3.11,1.56-6.2,2.31-9.3
			c0.73-3.11,1.41-5.99,2.06-8.65c0.63-2.67,1.18-5.03,1.64-7.09c0.46-2.08,0.83-3.61,1.11-4.62c0.33-1.26,0.96-2.26,1.89-2.99
			c0.96-0.73,2.08-1.11,3.42-1.11c1.46,0,2.67,0.4,3.62,1.16c0.91,0.77,1.53,1.76,1.79,2.94c0.75,3.27,1.54,6.93,2.41,10.96
			c0.86,4.02,1.78,8.11,2.71,12.24c0.95,4.13,1.93,8.19,2.91,12.16c1.01,3.97,1.98,7.49,2.92,10.55c0.66-2.39,1.39-5.27,2.16-8.59
			c0.76-3.36,1.54-6.78,2.34-10.31c0.81-3.52,1.58-7.03,2.31-10.5c0.75-3.46,1.41-6.58,2.03-9.35c0.6-2.76,1.08-5.02,1.45-6.74
			c0.37-1.74,0.55-2.64,0.55-2.71c0.33-1.26,0.86-2.16,1.61-2.64c0.73-0.5,1.71-0.76,2.91-0.76c1.26,0,2.34,0.35,3.2,1.05
			c0.88,0.7,1.31,1.63,1.31,2.76v0.4c0,0.13-0.03,0.37-0.1,0.7c-0.05,0.55-0.38,2.14-0.96,4.85c-0.55,2.69-1.24,5.98-2.04,9.8
			c-0.81,3.85-1.71,7.97-2.72,12.41c-0.98,4.43-1.98,8.65-2.94,12.64c-0.98,4-1.91,7.53-2.82,10.56c-0.9,3.02-1.66,5.08-2.26,6.14
			c-0.8,1.4-1.81,2.29-3.05,2.66c-1.25,0.37-2.23,0.55-2.96,0.55c-0.28,0-0.66-0.03-1.21-0.1c-0.53-0.08-1.1-0.2-1.71-0.41
			c-0.6-0.19-1.2-0.51-1.79-0.94c-0.62-0.45-1.08-1.03-1.41-1.76c-0.6-1.26-1.33-3.37-2.16-6.29c-0.83-2.94-1.74-6.24-2.71-9.95
			c-0.96-3.71-1.93-7.57-2.86-11.61C969.07,173.51,968.19,169.72,967.4,166.2"/>
		<path class="st1" d="M1019.88,190.1c-1.01,3.21-1.89,6.16-2.66,8.89c-0.78,2.73-1.49,4.98-2.16,6.71
			c-0.75,1.94-2.21,2.91-4.42,2.91c-1.54,0-2.66-0.38-3.37-1.15c-0.7-0.78-1.05-1.76-1.05-2.96c0-0.46,0.07-0.9,0.2-1.31
			c0.13-0.38,0.55-1.76,1.26-4.09c0.7-2.32,1.61-5.23,2.76-8.7c1.13-3.47,2.39-7.27,3.75-11.39c1.38-4.13,2.79-8.22,4.27-12.26
			c1.46-4.04,2.91-7.81,4.32-11.29c1.4-3.5,2.71-6.33,3.9-8.45c0.55-1.13,1.26-1.91,2.16-2.31c0.91-0.4,2.13-0.6,3.68-0.6
			c1.48,0,2.72,0.25,3.75,0.7c1.05,0.48,1.76,1.28,2.16,2.41c0.95,1.99,2.08,4.68,3.37,8.04c1.3,3.37,2.68,7.01,4.1,10.91
			c1.45,3.9,2.86,7.89,4.27,11.94c1.41,4.07,2.71,7.86,3.87,11.36c1.16,3.49,2.18,6.48,3.01,8.95c0.83,2.47,1.36,4.07,1.56,4.78
			c0.12,0.42,0.2,0.85,0.2,1.31c0,1.2-0.4,2.18-1.21,2.96c-0.8,0.76-1.98,1.15-3.51,1.15c-1.14,0-1.99-0.25-2.57-0.77
			c-0.55-0.48-1.01-1.21-1.35-2.14c-0.66-1.73-1.46-3.98-2.36-6.71c-0.9-2.72-1.86-5.68-2.86-8.89H1019.88z M1042.16,181.39
			c-1.41-4.33-2.74-8.32-4.02-11.94c-1.28-3.64-2.57-7.09-3.92-10.36c-0.33-0.73-0.68-1.56-1.05-2.56
			c-0.37-0.95-0.58-1.53-0.65-1.73c-0.07,0.05-0.3,0.61-0.65,1.64c-0.38,1.03-0.73,1.91-1.06,2.64c-1.33,3.27-2.63,6.73-3.88,10.36
			c-1.23,3.62-2.56,7.61-3.95,11.94H1042.16z"/>
		<path class="st1" d="M1076.17,183.39c-0.33-0.32-0.65-0.7-0.95-1.1c-0.31-0.38-0.63-0.86-0.96-1.39
			c-0.95-1.33-1.94-2.94-3.06-4.85c-1.11-1.89-2.21-3.92-3.32-6.04c-1.1-2.14-2.16-4.3-3.19-6.46c-1.05-2.16-1.99-4.17-2.81-6.03
			c-0.85-1.88-1.56-3.5-2.16-4.85c-0.62-1.38-1-2.34-1.11-2.87c-0.13-0.33-0.21-0.58-0.25-0.75c-0.02-0.17-0.05-0.42-0.05-0.75
			c0-1.2,0.42-2.21,1.25-2.99c0.85-0.81,1.99-1.21,3.47-1.21c1.33,0,2.28,0.33,2.86,1c0.56,0.68,1,1.35,1.25,2.01
			c0.13,0.35,0.46,1.06,0.96,2.19c0.5,1.15,1.11,2.54,1.84,4.2c0.73,1.66,1.58,3.5,2.51,5.5c0.96,2.01,1.89,3.97,2.87,5.91
			c0.96,1.93,1.91,3.77,2.81,5.55c0.9,1.76,1.76,3.21,2.56,4.35c1.28-1.94,2.64-4.37,4.12-7.31c1.46-2.94,2.87-5.83,4.2-8.69
			c1.34-2.87,2.49-5.41,3.47-7.61c0.96-2.21,1.54-3.57,1.76-4.1c0.27-0.66,0.68-1.33,1.25-2.01c0.56-0.66,1.53-1,2.86-1
			c1.48,0,2.62,0.4,3.47,1.21c0.83,0.78,1.25,1.79,1.25,2.99c0,0.33-0.02,0.58-0.05,0.75s-0.12,0.42-0.23,0.75
			c-0.21,0.53-0.6,1.49-1.16,2.91c-0.56,1.39-1.28,3.04-2.12,4.9c-0.83,1.86-1.76,3.89-2.79,6.05c-1.05,2.18-2.11,4.32-3.21,6.46
			c-1.11,2.12-2.21,4.17-3.32,6.1c-1.1,1.93-2.13,3.57-3.06,4.9c-0.6,0.86-1.25,1.64-1.91,2.29v20.71c0,1.33-0.41,2.41-1.26,3.26
			c-0.83,0.81-1.91,1.25-3.26,1.25s-2.42-0.43-3.26-1.25c-0.85-0.85-1.26-1.93-1.26-3.26V183.39z"/>
	</g>
</g>
<g>
	<g>
		<path class="st0" d="M87.41,254.04l-0.73,5.56c-0.33,2.74,1.83,5.15,4.63,5.15h180.84c2.81,0,4.97-2.41,4.65-5.15l-0.75-5.56
			c-0.45-4.33,2.71-8.29,7.03-8.74c4.35-0.47,8.19,2.7,8.64,7.02l0.7,5.41c1.41,12.09-5.45,22.71-17.67,22.71H88.72
			c-12.22,0-19.08-10.61-17.67-22.71l0.7-5.41c0.46-4.32,4.29-7.49,8.62-7.02C84.7,245.76,87.85,249.71,87.41,254.04"/>
		<path d="M254.58,212.12c8.8,0.02,15.81-6.39,15.63-14.83c-0.18-8.64-8.04-14.22-16.81-14.23h-17.7c-3.92,0-7.14-3.26-7.14-7.34
			c0-4.09,3.21-7.36,7.14-7.36h11.83c7.97-0.32,14.12-5.15,14.5-12.69c0.4-8.07-6.54-14.13-15.03-14.13h-28.7l-0.12,70.59H254.58z
			 M276.34,155.62c0,7.36-2.61,11.53-6.93,16.66l-0.43,0.52l0.6,0.37c8.55,5.21,14.52,13.09,14.96,24.15
			c0.66,16.48-13.3,30.11-29.88,30.08h-43.7c-4.25,0-7.69-3.54-7.69-7.89v-84.76c0-4.37,3.44-7.89,7.67-7.89l36.08,0.1
			C262.75,126.97,276.34,138.53,276.34,155.62"/>
		<path d="M135.49,198.34l0.2,0.6l0.22-0.6c2.03-5.58,4.47-11.76,7.06-18.5c2.67-7.09,5.33-13.87,7.99-20.33
			c2.69-6.56,5.23-12.41,7.66-17.51c2.42-5.21,4.43-8.79,5.98-10.75c2.39-2.86,5.55-4.3,9.48-4.3h1.81c2.41,0,4.29,0.63,5.7,1.83
			c1.29,1.13,2.06,2.43,2.28,3.92l11.29,87.58c0,2.26-0.65,4-1.93,5.3c-1.28,1.21-3.11,1.81-5.5,1.81s-4.29-0.57-5.68-1.68
			c-1.54-1.11-2.42-2.57-2.64-4.38c-0.38-2.91-0.73-6.15-1.08-9.7c-0.5-3.54-2.26-18.82-2.76-22.67c-0.46-3.97-3.64-28.71-4.72-37.7
			l-0.1-0.76l-3.62,7.59c-1.23,2.61-2.56,5.75-4.02,9.4c-1.44,3.65-2.92,7.51-4.37,11.58c-1.58,3.95-8.57,23.93-8.57,23.93
			c-0.65,1.81-1.88,5.46-2.99,8.82c-1.13,3.34-2.16,6.36-2.44,6.94c-1.66,3.3-4.9,5.48-9.02,5.51c-4.17-0.02-7.41-2.21-9.05-5.51
			c-0.3-0.58-1.33-3.61-2.46-6.94c-1.13-3.36-2.33-7.01-3.01-8.82c0,0-6.99-19.98-8.55-23.93c-1.46-4.07-2.92-7.92-4.38-11.58
			c-1.46-3.65-2.79-6.79-3.99-9.4l-3.64-7.59l-0.08,0.76c-1.1,8.99-4.25,33.73-4.73,37.7c-0.5,3.85-2.26,19.13-2.74,22.67
			c-0.37,3.55-0.73,6.79-1.11,9.7c-0.22,1.81-1.1,3.27-2.62,4.38c-1.41,1.11-3.3,1.68-5.7,1.68c-2.39,0-4.2-0.6-5.48-1.81
			c-1.28-1.3-1.93-3.06-1.94-5.3l11.29-87.58c0.25-1.49,1-2.79,2.29-3.92c1.4-1.2,3.31-1.83,5.68-1.83h1.83
			c3.94,0,7.09,1.45,9.47,4.3c1.56,1.96,3.55,5.53,5.98,10.75c2.44,5.1,4.98,10.95,7.66,17.51c2.66,6.46,5.33,13.24,8.01,20.33
			C131.02,186.58,133.46,192.76,135.49,198.34"/>
		<path class="st0" d="M113.33,73.9h137.36c12.94,0,19.38,9.72,20.89,22.53l0.58,4.1c0.46,4.4-2.77,8.34-7.09,8.8
			c-4.33,0.46-8.22-2.72-8.67-7.12l-0.55-3.92c-0.58-4.87-2.64-8.62-7.59-8.62H115.76c-4.95,0-7.01,3.75-7.59,8.62l-0.53,3.92
			c-0.45,4.4-4.33,7.59-8.69,7.12c-4.33-0.46-7.56-4.4-7.09-8.8l0.58-4.1C93.97,83.61,100.4,73.9,113.33,73.9"/>
		<path d="M360.4,166.2c-0.95,3.67-1.93,7.59-2.96,11.76c-1.03,4.15-2.06,8.14-3.07,11.94c-1,3.8-1.94,7.12-2.86,10
			c-0.9,2.87-1.66,4.83-2.26,5.89c-1.06,1.88-2.94,2.81-5.61,2.81c-0.75,0-1.71-0.15-2.92-0.46c-1.2-0.3-2.19-1.15-3.01-2.54
			c-0.6-1.06-1.35-3.12-2.26-6.2c-0.9-3.07-1.84-6.59-2.86-10.6c-1-4-1.99-8.24-3.01-12.71c-1-4.47-1.91-8.6-2.71-12.46
			c-0.8-3.82-1.48-7.11-2.01-9.8c-0.53-2.71-0.83-4.3-0.9-4.85c-0.07-0.33-0.1-0.56-0.1-0.7v-0.4c0-1.13,0.42-2.06,1.3-2.76
			c0.86-0.7,1.94-1.05,3.21-1.05c1.21,0,2.18,0.27,2.92,0.76c0.73,0.48,1.26,1.38,1.59,2.64c0,0.13,0.2,1.11,0.55,2.91
			c0.38,1.79,0.85,4.1,1.41,6.89c0.58,2.81,1.21,5.93,1.91,9.4c0.7,3.47,1.43,6.99,2.21,10.56c0.76,3.55,1.54,6.99,2.31,10.35
			c0.76,3.32,1.48,6.2,2.16,8.59c0.66-2.26,1.39-4.85,2.21-7.76c0.8-2.89,1.61-5.9,2.41-8.98c0.8-3.11,1.56-6.2,2.31-9.3
			c0.73-3.11,1.41-5.99,2.06-8.65c0.63-2.67,1.18-5.03,1.64-7.09c0.46-2.08,0.83-3.61,1.11-4.62c0.33-1.26,0.96-2.26,1.89-2.99
			c0.96-0.73,2.08-1.11,3.42-1.11c1.46,0,2.67,0.4,3.62,1.16c0.91,0.77,1.53,1.76,1.79,2.94c0.75,3.27,1.54,6.93,2.41,10.96
			c0.86,4.02,1.78,8.11,2.71,12.24c0.95,4.13,1.93,8.19,2.91,12.16c1.01,3.97,1.98,7.49,2.92,10.55c0.66-2.39,1.39-5.27,2.16-8.59
			c0.76-3.36,1.54-6.78,2.34-10.31c0.81-3.52,1.58-7.03,2.31-10.5c0.75-3.46,1.41-6.58,2.03-9.35c0.6-2.76,1.08-5.02,1.45-6.74
			c0.37-1.74,0.55-2.64,0.55-2.71c0.33-1.26,0.86-2.16,1.61-2.64c0.73-0.5,1.71-0.76,2.91-0.76c1.26,0,2.34,0.35,3.2,1.05
			c0.88,0.7,1.31,1.63,1.31,2.76v0.4c0,0.13-0.03,0.37-0.1,0.7c-0.05,0.55-0.38,2.14-0.96,4.85c-0.55,2.69-1.24,5.98-2.04,9.8
			c-0.81,3.85-1.71,7.97-2.72,12.41c-0.98,4.43-1.98,8.65-2.94,12.64c-0.98,4-1.91,7.53-2.82,10.56c-0.9,3.02-1.66,5.08-2.26,6.14
			c-0.8,1.4-1.81,2.29-3.05,2.66c-1.25,0.37-2.23,0.55-2.96,0.55c-0.28,0-0.66-0.03-1.21-0.1c-0.53-0.08-1.1-0.2-1.71-0.41
			c-0.6-0.19-1.2-0.51-1.79-0.94c-0.62-0.45-1.08-1.03-1.41-1.76c-0.6-1.26-1.33-3.37-2.16-6.29c-0.83-2.94-1.74-6.24-2.71-9.95
			c-0.96-3.71-1.93-7.57-2.86-11.61C362.07,173.51,361.19,169.72,360.4,166.2"/>
		<path d="M412.88,190.1c-1.01,3.21-1.89,6.16-2.66,8.89c-0.78,2.73-1.49,4.98-2.16,6.71c-0.75,1.94-2.21,2.91-4.42,2.91
			c-1.54,0-2.66-0.38-3.37-1.15c-0.7-0.78-1.05-1.76-1.05-2.96c0-0.46,0.07-0.9,0.2-1.31c0.13-0.38,0.55-1.76,1.26-4.09
			c0.7-2.32,1.61-5.23,2.76-8.7c1.13-3.47,2.39-7.27,3.75-11.39c1.38-4.13,2.79-8.22,4.27-12.26c1.46-4.04,2.91-7.81,4.32-11.29
			c1.4-3.5,2.71-6.33,3.9-8.45c0.55-1.13,1.26-1.91,2.16-2.31c0.91-0.4,2.13-0.6,3.68-0.6c1.48,0,2.72,0.25,3.75,0.7
			c1.05,0.48,1.76,1.28,2.16,2.41c0.95,1.99,2.08,4.68,3.37,8.04c1.3,3.37,2.68,7.01,4.1,10.91c1.45,3.9,2.86,7.89,4.27,11.94
			c1.41,4.07,2.71,7.86,3.87,11.36c1.16,3.49,2.18,6.48,3.01,8.95c0.83,2.47,1.36,4.07,1.56,4.78c0.12,0.42,0.2,0.85,0.2,1.31
			c0,1.2-0.4,2.18-1.21,2.96c-0.8,0.76-1.98,1.15-3.51,1.15c-1.14,0-1.99-0.25-2.57-0.77c-0.55-0.48-1.01-1.21-1.35-2.14
			c-0.66-1.73-1.46-3.98-2.36-6.71c-0.9-2.72-1.86-5.68-2.86-8.89H412.88z M435.16,181.39c-1.41-4.33-2.74-8.32-4.02-11.94
			c-1.28-3.64-2.57-7.09-3.92-10.36c-0.33-0.73-0.68-1.56-1.05-2.56c-0.37-0.95-0.58-1.53-0.65-1.73c-0.07,0.05-0.3,0.61-0.65,1.64
			c-0.38,1.03-0.73,1.91-1.06,2.64c-1.33,3.27-2.63,6.73-3.88,10.36c-1.23,3.62-2.56,7.61-3.95,11.94H435.16z"/>
		<path d="M469.17,183.39c-0.33-0.32-0.65-0.7-0.95-1.1c-0.31-0.38-0.63-0.86-0.96-1.39c-0.95-1.33-1.94-2.94-3.06-4.85
			c-1.11-1.89-2.21-3.92-3.32-6.04c-1.1-2.14-2.16-4.3-3.19-6.46c-1.05-2.16-1.99-4.17-2.81-6.03c-0.85-1.88-1.56-3.5-2.16-4.85
			c-0.62-1.38-1-2.34-1.11-2.87c-0.13-0.33-0.21-0.58-0.25-0.75c-0.02-0.17-0.05-0.42-0.05-0.75c0-1.2,0.42-2.21,1.25-2.99
			c0.85-0.81,1.99-1.21,3.47-1.21c1.33,0,2.28,0.33,2.86,1c0.56,0.68,1,1.35,1.25,2.01c0.13,0.35,0.46,1.06,0.96,2.19
			c0.5,1.15,1.11,2.54,1.84,4.2c0.73,1.66,1.58,3.5,2.51,5.5c0.96,2.01,1.89,3.97,2.87,5.91c0.96,1.93,1.91,3.77,2.81,5.55
			c0.9,1.76,1.76,3.21,2.56,4.35c1.28-1.94,2.64-4.37,4.12-7.31c1.46-2.94,2.87-5.83,4.2-8.69c1.34-2.87,2.49-5.41,3.47-7.61
			c0.96-2.21,1.54-3.57,1.76-4.1c0.27-0.66,0.68-1.33,1.25-2.01c0.56-0.66,1.53-1,2.86-1c1.48,0,2.62,0.4,3.47,1.21
			c0.83,0.78,1.25,1.79,1.25,2.99c0,0.33-0.02,0.58-0.05,0.75s-0.12,0.42-0.23,0.75c-0.21,0.53-0.6,1.49-1.16,2.91
			c-0.56,1.39-1.28,3.04-2.12,4.9c-0.83,1.86-1.76,3.89-2.79,6.05c-1.05,2.18-2.11,4.32-3.21,6.46c-1.11,2.12-2.21,4.17-3.32,6.1
			c-1.1,1.93-2.13,3.57-3.06,4.9c-0.6,0.86-1.25,1.64-1.91,2.29v20.71c0,1.33-0.41,2.41-1.26,3.26c-0.83,0.81-1.91,1.25-3.26,1.25
			s-2.42-0.43-3.26-1.25c-0.85-0.85-1.26-1.93-1.26-3.26V183.39z"/>
	</g>
</g>
</svg>
